name C:\Users\u0101727\Documents\MyRepositories\upper-imu-dc\Results\main_tracking\Case_87\kinematics.mot
datacolumns 43
datarows 4
range 3.00000000 3.06000000
endheader 
time	clav_prot	clav_elev	scapula_abduction	scapula_elevation	scapula_upward_rot	scapula_winging	plane_elv	shoulder_elv	axial_rot	TrapeziusScapula_M/activation	TrapeziusScapula_S/activation	TrapeziusScapula_I/activation	TrapeziusClavicle_S/activation	SerratusAnterior_I/activation	SerratusAnterior_M/activation	SerratusAnterior_S/activation	Rhomboideus_S/activation	Rhomboideus_I/activation	LevatorScapulae/activation	Coracobrachialis/activation	DeltoideusClavicle_A/activation	DeltoideusScapula_P/activation	DeltoideusScapula_M/activation	LatissimusDorsi_S/activation	LatissimusDorsi_M/activation	LatissimusDorsi_I/activation	PectoralisMajorClavicle_S/activation	PectoralisMajorThorax_I/activation	PectoralisMajorThorax_M/activation	TeresMajor/activation	Infraspinatus_I/activation	Infraspinatus_S/activation	PectoralisMinor/activation	TeresMinor/activation	Subscapularis_S/activation	Subscapularis_M/activation	Subscapularis_I/activation	Supraspinatus_P/activation	Supraspinatus_A/activation	TRIlong/activation	BIC_long/activation	BIC_brevis/activation	
          3.00000000	        -25.98058829	         -2.34949232	        -18.86090189	         -2.00794935	         10.14339129	          5.60962678	        -17.77445004	         12.14518839	         47.50868695	          0.01000002	          0.01000002	          0.01000001	          0.02756678	          0.01000004	          0.04238741	          0.01000011	          0.01001304	          0.01333341	          0.04278814	          0.01000220	          0.01000008	          0.01000011	          0.01000002	          0.01000007	          0.01000007	          0.01000559	          0.01449293	          0.01000007	          0.01865032	          0.01000011	          0.01056469	          0.01000009	          0.01000004	          0.01000074	          0.01000009	          0.01000010	          0.01000007	          0.01000010	          0.01000007	          0.01329369	          0.01000008	          0.01059557	
          3.02000000	        -24.90330623	         -2.88851055	        -18.54923946	         -2.29565094	         10.06668788	          5.74190649	        -18.42701949	         12.46745054	         47.35491218	          0.01000002	          0.01814290	          0.01000001	          0.02622249	          0.02500623	          0.06045779	          0.01000011	          0.01000011	          0.01000011	          0.03209116	          0.01000008	          0.02210999	          0.01000003	          0.03450421	          0.01000006	          0.01000005	          0.01000007	          0.01798767	          0.01000003	          0.01526497	          0.01000003	          0.01343822	          0.01631786	          0.01000002	          0.01000012	          0.01000015	          0.01000013	          0.01000009	          0.01000070	          0.01499254	          0.01000001	          0.01919553	          0.01000009	
          3.04000000	        -24.78391699	         -3.30791910	        -18.26365093	         -2.59186979	          9.99616588	          5.87759535	        -19.08790886	         12.79939837	         47.17654430	          0.01000002	          0.01966296	          0.01000001	          0.02874137	          0.02814547	          0.06173927	          0.01000010	          0.01000039	          0.01000021	          0.02792042	          0.01000010	          0.02008741	          0.01000003	          0.04121670	          0.01000006	          0.01000005	          0.01000007	          0.01813104	          0.01000004	          0.01486863	          0.01000002	          0.01527361	          0.01439840	          0.01000003	          0.01000024	          0.01000010	          0.01000009	          0.01000006	          0.01000059	          0.01454099	          0.01000002	          0.02080967	          0.01000011	
          3.06000000	        -24.68219466	         -3.72463820	        -17.99508420	         -2.89619500	          9.95707933	          6.00831380	        -19.74942385	         13.15982153	         46.94958144	          0.01000002	          0.02105122	          0.01000001	          0.02709068	          0.03076510	          0.06169999	          0.01000011	          0.01000027	          0.01000011	          0.02570635	          0.01000011	          0.02124755	          0.01000003	          0.04301920	          0.01000006	          0.01000005	          0.01000015	          0.01794608	          0.01000004	          0.01421869	          0.01000003	          0.01572535	          0.01531582	          0.01000002	          0.01000026	          0.01000010	          0.01000009	          0.01000006	          0.01000062	          0.01445254	          0.01000002	          0.02413218	          0.01000012	
